<svg viewBox="0 0 151 48" version="1.1" xmlns="http://www.w3.org/2000/svg" xmlns:xlink="http://www.w3.org/1999/xlink">
    <g stroke="none" stroke-width="1" fill="none" fill-rule="evenodd">
        <g transform="translate(-120.000000, -20.000000)" fill="#17427F" fill-rule="nonzero">
            <g transform="translate(120.000000, 20.000180)">
                <path d="M130.618236,8.05687734 C127.843245,8.05687734 127.050646,6.52521973 127.050646,4.02799082 C127.050646,1.58808711 127.900369,0 130.618236,0 L147.434195,0 C150.207401,0 151,1.58808711 151,4.02799082 C151,6.46789453 150.207401,8.05687734 147.433303,8.05687734 L143.413182,8.05687734 L143.413182,30.6376309 C143.413182,33.5880871 141.658395,34.6100879 139.053885,34.6100879 C136.393143,34.6100879 134.694588,33.6454123 134.694588,30.6385266 L134.694588,8.05687734 L130.618236,8.05687734 Z M89.0031979,8.3972457 C89.0031979,5.73072832 90.5321649,4.87891172 92.7966071,4.87891172 C95.0619418,4.87891172 96.5900163,5.78715781 96.5900163,8.3972457 L96.5900163,22.1839557 C96.5900163,26.0990875 98.0056273,28.1412977 100.723493,28.1412977 C103.497591,28.1412977 104.856078,26.0990875 104.856078,22.1275262 L104.856078,6.58164922 C104.856078,3.91423613 106.385045,3.06331523 108.649487,3.06331523 C110.914822,3.06331523 112.442896,3.97156133 112.442896,6.58164922 L112.442896,22.2412809 C112.442896,29.8440352 109.102911,34.8367016 100.667262,34.8367016 C92.2307197,34.8367016 88.8907344,29.9013604 88.8907344,22.2977104 L89.0031979,8.39635 L89.0031979,8.3972457 Z M119.238008,34.3825785 C116.520142,34.3825785 115.444599,32.9646756 115.444599,30.5812014 L115.444599,5.21928008 C115.444599,2.38257851 117.086922,1.53165762 119.577183,1.53165762 C122.068338,1.53165762 123.709768,2.43990371 123.709768,5.21928008 L123.709768,26.8935789 L129.032144,26.8935789 C131.580423,26.8935789 132.373022,28.4252365 132.373022,30.6376309 C132.373022,32.9646756 131.580423,34.3825785 129.032144,34.3825785 L119.238008,34.3825785 L119.238008,34.3825785 Z M67.2058224,31.2628338 C67.2058224,33.759167 68.7338969,34.6100879 70.8296439,34.6100879 C73.1503177,34.6100879 74.4534653,33.759167 74.4534653,31.2619381 L74.4534653,27.0073336 L76.9437269,27.0073336 C83.1149342,27.0073336 86.7387557,23.4325701 86.7387557,17.4752281 C86.7387557,11.5743156 83.6245899,7.82936797 75.5852401,7.82936797 L70.7725196,7.82936797 C68.2251337,7.82936797 67.1486981,9.07798242 67.1486981,11.347702 L67.1486981,31.2619381 L67.2058224,31.2619381 L67.2058224,31.2628338 Z M74.5096971,21.2192801 L74.5096971,13.6174215 L75.4156524,13.6174215 C78.8689936,13.6174215 79.4920053,15.433018 79.4920053,17.4187986 C79.4920053,19.631193 78.8127619,21.2201758 75.3594207,21.2201758 L74.5096971,21.2201758 L74.5096971,21.2192801 Z M32.6117157,18.7229469 C30.7998049,18.7229469 30.2339175,17.5880871 30.2339175,16 C30.2339175,14.4110172 30.7998049,13.2770531 32.6117157,13.2770531 L43.3698241,13.2770531 C45.1817349,13.2770531 45.7476223,14.4110172 45.7476223,16 C45.7476223,17.5880871 45.1808423,18.7229469 43.3698241,18.7229469 L41.1044894,18.7229469 L41.1044894,31.8862453 C41.1044894,33.9284555 39.8593587,34.5527627 38.0474479,34.5527627 C36.2355372,34.5527627 34.9904064,33.9293512 34.9904064,31.8862453 L34.9904064,18.7229469 L32.6108231,18.7229469 L32.6117157,18.7229469 Z M51.0128742,29.5600963 L58.0338052,29.5600963 L58.6559243,31.7724906 C59.2227043,34.0995354 60.2982474,34.6100879 62.3931018,34.6100879 C64.6013123,34.6100879 66.186511,33.3614734 65.5634993,30.9788949 C64.9976119,28.8793596 60.2982474,14.3545877 60.2982474,14.3545877 C58.9959923,10.6105357 57.863325,9.98533281 54.8625151,9.98533281 C51.8625979,9.98533281 50.7299305,10.7233947 49.3705512,14.3545877 C49.3705512,14.3545877 44.2757795,28.7665006 43.6527678,30.9788949 C42.9735245,33.4179029 44.4453672,34.5527627 46.6535777,34.5527627 C48.8617881,34.5527627 49.5410315,33.9293512 50.3336309,31.6596316 L51.0128742,29.5600963 L51.0128742,29.5600963 Z M52.2017733,23.829368 L54.5795714,14.5812014 L56.7306576,23.829368 L52.2026659,23.829368 L52.2017733,23.829368 Z M20.7218324,30.4683424 L26.6100961,30.4683424 L27.176876,32.3403684 C27.6294074,34.0995354 28.3086508,34.6100879 30.1205615,34.6100879 C31.8762406,34.6100879 33.2356199,33.5889828 32.7250717,31.7169568 C32.2725403,30.0706488 28.2524191,18.2697195 28.2524191,18.2697195 C27.290232,15.4321223 26.2137964,14.8087107 23.8359982,14.8087107 C21.4582001,14.8087107 20.4388887,15.3756928 19.4195774,18.2697195 C19.4195774,18.2697195 15.3432245,30.0142193 14.8335688,31.7160611 C14.2676814,33.6454123 15.5137047,34.6091922 17.2684912,34.6091922 C18.967046,34.6091922 19.5891651,34.0422102 20.2130693,32.2839389 L20.7218324,30.4683424 L20.7218324,30.4683424 Z M21.9678558,25.8151486 L23.6664105,18.326149 L25.5916773,25.8151486 L21.9678558,25.8151486 Z M7.69928181,30.0715445 C8.60612975,30.0715445 9.22914142,29.78671 9.96461652,29.2197279 C11.1535156,28.3114818 12.1157027,28.4252365 12.9654263,29.5600963 C13.81515,30.6949561 13.588438,31.8298158 12.5691266,32.8509209 C11.4935836,33.9293512 9.56831683,34.7802721 7.30298212,34.7802721 C2.88745382,34.7802721 0,31.1490791 0,25.9289033 C0,20.5958686 3.28464608,17.1348598 7.70017438,17.1348598 C10.0779725,17.1348598 11.6631713,17.9284555 12.7387143,18.9504563 C13.7580257,19.8578066 13.928506,20.9362369 13.1921383,22.0710967 C12.5128949,23.0922018 11.2668716,23.6027543 10.3046845,22.7518334 C9.79502882,22.2977104 9.05866115,21.6734031 7.86976208,21.6734031 C6.11497562,21.6734031 4.92607655,23.3188154 4.92607655,25.9289033 C4.92607655,28.4252365 6.00161962,30.0706488 7.70017438,30.0706488 M21.0619004,45.1632984 C21.0619004,45.7302805 20.722725,46.0142193 20.269301,46.0142193 C19.8167696,46.0142193 19.4767016,45.7302805 19.4767016,45.1632984 L19.4767016,39.8866932 C19.4767016,39.3188154 19.8158771,39.0357723 20.269301,39.0357723 C20.7218324,39.0357723 21.0619004,39.3188154 21.0619004,39.8866932 L21.0619004,41.7022896 L23.9493542,41.7022896 L23.9493542,39.8866932 C23.9493542,39.3188154 24.2885296,39.0357723 24.7419536,39.0357723 C25.1953776,39.0357723 25.534553,39.3188154 25.534553,39.8866932 L25.534553,45.1624027 C25.534553,45.7302805 25.1953776,46.0133236 24.7419536,46.0133236 C24.2894222,46.0133236 23.9493542,45.7302805 23.9493542,45.1624027 L23.9493542,43.1775178 L21.0619004,43.1775178 L21.0619004,45.1632984 Z M26.836808,41.5321055 C26.836808,41.0779824 27.1197517,40.7376141 27.5731757,40.7376141 C28.0257071,40.7376141 28.3086508,41.0779824 28.3086508,41.5321055 L28.3086508,45.1632984 C28.3086508,45.6165258 28.0257071,45.9568941 27.5731757,45.9568941 C27.1197517,45.9568941 26.836808,45.6165258 26.836808,45.1632984 L26.836808,41.5321055 L26.836808,41.5321055 Z M27.5731757,38.524324 C28.0819388,38.524324 28.4791311,38.9220176 28.4791311,39.4325701 C28.4791311,39.9431227 28.0828314,40.3399205 27.5731757,40.3399205 C27.06352,40.3399205 26.6672203,39.9431227 26.6672203,39.4325701 C26.723452,38.9220176 27.1197517,38.524324 27.5731757,38.524324 Z M31.9895966,42.0990875 C31.3094606,42.0990875 30.9702852,42.6669652 30.9702852,43.347702 C30.9702852,44.0848682 31.3094606,44.6527459 31.9895966,44.6527459 C32.6679474,44.6527459 33.0080154,44.0848682 33.0080154,43.347702 C33.0080154,42.6669652 32.66884,42.0990875 31.9895966,42.0990875 Z M34.5369824,45.3899121 C34.5369824,47.3192633 33.2918516,48 31.8191163,48 C31.0265169,48 29.6109059,47.7160611 29.6109059,46.8651402 C29.6109059,46.5247719 29.9509738,46.240833 30.2339175,46.240833 C30.6873415,46.240833 30.9131609,46.6949561 31.8191163,46.6949561 C32.7250717,46.6949561 33.0651396,46.1844035 33.0651396,45.3899121 C32.7259642,45.8440352 32.215416,45.9568941 31.7057603,45.9568941 C30.2910418,45.9568941 29.5546742,44.7091754 29.5546742,43.347702 C29.5546742,41.8724738 30.5739855,40.6247551 31.875348,40.6247551 C32.442128,40.6247551 32.8393202,40.7949393 33.1784956,41.1917371 C33.2918516,40.9642277 33.5176711,40.7376141 33.8568465,40.7376141 C34.3102704,40.7376141 34.5932141,41.0779824 34.5932141,41.5321055 L34.5932141,45.3899121 L34.5369824,45.3899121 L34.5369824,45.3899121 Z M35.8954692,39.3188154 C35.8954692,38.8646924 36.1793055,38.524324 36.6318369,38.524324 C37.0852608,38.524324 37.3682045,38.8646924 37.3682045,39.3188154 L37.3682045,41.0206572 C37.6511482,40.850473 38.0465553,40.6238594 38.6133353,40.6238594 C39.6326467,40.6238594 40.4823703,41.1344119 40.4823703,42.3830264 L40.4823703,45.1632984 C40.4823703,45.6165258 40.1985341,45.9568941 39.7460027,45.9568941 C39.2925787,45.9568941 39.009635,45.6165258 39.009635,45.1632984 L39.009635,42.7807199 C39.009635,42.2701674 38.7266913,41.8724738 38.1608039,41.8724738 C37.6511482,41.8724738 37.3682045,42.2692717 37.3682045,42.7798242 L37.3682045,45.1624027 C37.3682045,45.6165258 37.0852608,45.9568941 36.6318369,45.9568941 C36.1793055,45.9568941 35.8954692,45.6165258 35.8954692,45.1632984 L35.8954692,39.3188154 L35.8954692,39.3188154 Z M47.559533,39.716509 C47.7291207,39.3761406 47.8424767,39.0357723 48.4083641,39.0357723 C48.8617881,39.0357723 49.1447318,39.3761406 49.1447318,39.7729385 C49.1447318,39.9431227 49.0313758,40.2270615 48.9751441,40.3399205 L47.0498773,45.1059732 C46.8802896,45.5036668 46.7669336,45.9568941 46.2001537,45.9568941 C45.6342663,45.9568941 45.5209103,45.5036668 45.3513226,45.1059732 L43.4822876,40.3408162 C43.4260559,40.2270615 43.3126999,39.9431227 43.3126999,39.7729385 C43.3126999,39.3761406 43.5956436,39.0357723 44.0490675,39.0357723 C44.6149549,39.0357723 44.7845426,39.3761406 44.8978986,39.716509 L46.2010463,43.1775178 L47.559533,39.716509 L47.559533,39.716509 Z M50.7861623,43.347702 C50.7861623,44.0284387 51.1253377,44.5954207 51.8054736,44.5954207 C52.484717,44.5954207 52.824785,44.0284387 52.824785,43.347702 C52.824785,42.6669652 52.4856096,42.0990875 51.8054736,42.0990875 C51.1262302,42.0990875 50.7861623,42.6669652 50.7861623,43.347702 Z M54.2966278,45.2197279 C54.2966278,45.673851 54.0136841,46.0142193 53.5602601,46.0142193 C53.2210847,46.0142193 52.9943727,45.78671 52.8819093,45.5600963 C52.5418413,45.9568941 52.1455416,46.127974 51.5787616,46.127974 C50.2765066,46.127974 49.2580878,44.9366848 49.2580878,43.4041314 C49.2580878,41.9289033 50.2765066,40.6811846 51.5787616,40.6811846 C52.1455416,40.6811846 52.5418413,40.8513688 52.8819093,41.2481666 C52.9943727,41.0215529 53.2210847,40.7940436 53.5602601,40.7940436 C54.0136841,40.7940436 54.2966278,41.1344119 54.2966278,41.588535 L54.2966278,45.2197279 L54.2966278,45.2197279 Z M55.6560071,39.3188154 C55.6560071,38.8646924 55.9389508,38.524324 56.3914822,38.524324 C56.8449062,38.524324 57.1278499,38.8646924 57.1278499,39.3188154 L57.1278499,45.2197279 C57.1278499,45.673851 56.8449062,46.0142193 56.3914822,46.0142193 C55.9389508,46.0142193 55.6560071,45.673851 55.6560071,45.2197279 L55.6560071,39.3188154 L55.6560071,39.3188154 Z M63.1294695,44.0848682 C63.1294695,45.4463416 62.0530338,46.0706488 60.8079031,46.0706488 C59.5618797,46.0706488 58.4872292,45.4463416 58.4872292,44.0848682 L58.4872292,41.5321055 C58.4872292,41.0779824 58.7692803,40.7376141 59.2227043,40.7376141 C59.6752357,40.7376141 59.9581794,41.0779824 59.9581794,41.5321055 L59.9581794,43.8582545 C59.9581794,44.4252365 60.4116034,44.7091754 60.8079031,44.7091754 C61.2042027,44.7091754 61.6567342,44.4252365 61.6567342,43.8582545 L61.6567342,41.5321055 C61.6567342,41.0779824 61.9405704,40.7376141 62.3931018,40.7376141 C62.8456332,40.7376141 63.1294695,41.0779824 63.1294695,41.5321055 L63.1294695,44.0848682 Z M67.828834,42.8371494 C67.828834,42.4967811 67.4325344,41.9289033 66.8657544,41.9289033 C66.299867,41.9289033 65.9035673,42.4958853 65.9035673,42.8371494 L67.828834,42.8371494 Z M65.9035673,43.8582545 C65.9035673,44.1986229 66.1302793,44.7091754 67.0924664,44.7091754 C67.828834,44.7091754 68.2813654,44.2550523 68.6214334,44.2550523 C68.9606088,44.2550523 69.2435525,44.5389912 69.2435525,44.8793596 C69.2435525,45.6165258 68.0546535,46.0706488 66.9228787,46.0706488 C65.3376799,46.0706488 64.3183686,44.8793596 64.3183686,43.347702 C64.3183686,41.9289033 65.3939116,40.6247551 66.9228787,40.6247551 C68.3947214,40.6247551 69.3569085,41.8724738 69.3569085,43.1775178 C69.3569085,43.6880703 69.1310891,43.8009293 68.6214334,43.8009293 L65.9035673,43.8009293 L65.9035673,43.8582545 L65.9035673,43.8582545 Z M73.6599734,39.9995521 C73.8295611,39.2059564 74.2829851,39.0357723 74.6792848,39.0357723 C75.4718841,39.0357723 75.6414718,39.4889996 76.0377715,40.7376141 L76.7741392,43.0637631 L77.5105069,40.7376141 C77.9068066,39.4889996 78.0763943,39.0357723 78.8689936,39.0357723 C79.2652933,39.0357723 79.774949,39.2059564 79.888305,39.9995521 L80.5113167,43.5178861 C80.6237801,44.1986229 80.7942604,44.9931143 80.7942604,45.2197279 C80.7942604,45.5600963 80.5113167,45.9568941 80.0578927,45.9568941 C79.3786493,45.9568941 79.2090616,45.4463416 79.1519373,44.9357891 L78.6994059,41.9289033 L77.6800946,45.2761574 C77.5105069,45.78671 77.2837949,45.9568941 76.8303709,45.9568941 C76.3778395,45.9568941 76.1520201,45.7302805 75.9815398,45.2761574 L74.9622285,41.9289033 L74.5096971,44.9357891 C74.4525728,45.4463416 74.2829851,45.9568941 73.6037417,45.9568941 C73.1503177,45.9568941 72.867374,45.5600963 72.867374,45.2197279 C72.867374,44.9931143 72.98073,44.1986229 73.1503177,43.5178861 L73.6599734,39.9995521 L73.6599734,39.9995521 Z M83.2854145,43.347702 C83.2854145,44.0284387 83.6245899,44.5954207 84.3047259,44.5954207 C84.9830767,44.5954207 85.3231447,44.0284387 85.3231447,43.347702 C85.3231447,42.6669652 84.9839693,42.0990875 84.3047259,42.0990875 C83.6245899,42.0990875 83.2854145,42.6669652 83.2854145,43.347702 Z M86.79588,45.2197279 C86.79588,45.673851 86.5120437,46.0142193 86.0595123,46.0142193 C85.7203369,46.0142193 85.4936249,45.78671 85.380269,45.5600963 C85.0410935,45.9568941 84.6439013,46.127974 84.0771213,46.127974 C82.7757588,46.127974 81.7564475,44.9366848 81.7564475,43.4041314 C81.7564475,41.9289033 82.7757588,40.6811846 84.0771213,40.6811846 C84.6439013,40.6811846 85.0410935,40.8513688 85.380269,41.2481666 C85.4936249,41.0215529 85.7194444,40.7940436 86.0586198,40.7940436 C86.5120437,40.7940436 86.79588,41.1344119 86.79588,41.588535 L86.79588,45.2197279 L86.79588,45.2197279 Z M88.1543668,41.5321055 C88.1543668,41.0779824 88.4373105,40.7376141 88.8907344,40.7376141 C89.2870341,40.7376141 89.5128536,41.0215529 89.6262095,41.1917371 C89.8529215,40.7940436 90.2492212,40.6238594 90.9293572,40.6238594 C91.947776,40.6238594 92.7966071,41.1344119 92.7966071,42.3830264 L92.7966071,45.1632984 C92.7966071,45.6165258 92.5136634,45.9568941 92.061132,45.9568941 C91.607708,45.9568941 91.3247643,45.6165258 91.3247643,45.1632984 L91.3247643,42.7807199 C91.3247643,42.2701674 91.0418206,41.8724738 90.4759332,41.8724738 C89.9662775,41.8724738 89.6262095,42.2692717 89.6262095,42.7798242 L89.6262095,45.1624027 C89.6262095,45.6165258 89.3432658,45.9568941 88.8907344,45.9568941 C88.4373105,45.9568941 88.1543668,45.6165258 88.1543668,45.1632984 L88.1543668,41.5321055 L88.1543668,41.5321055 Z M98.6848707,44.0848682 C98.6848707,45.4463416 97.6093276,46.0706488 96.3641968,46.0706488 C95.1181735,46.0706488 94.0426304,45.4463416 94.0426304,44.0848682 L94.0426304,41.5321055 C94.0426304,41.0779824 94.3255741,40.7376141 94.7789981,40.7376141 C95.2315295,40.7376141 95.5144732,41.0779824 95.5144732,41.5321055 L95.5144732,43.8582545 C95.5144732,44.4252365 95.9678971,44.7091754 96.3641968,44.7091754 C96.7604965,44.7091754 97.1567962,44.4252365 97.1567962,43.8582545 L97.1567962,41.5321055 C97.1567962,41.0779824 97.4397399,40.7376141 97.8922713,40.7376141 C98.3456953,40.7376141 98.628639,41.0779824 98.628639,41.5321055 L98.628639,44.0848682 L98.6848707,44.0848682 L98.6848707,44.0848682 Z M100.610137,42.2128422 L100.44055,42.2128422 C99.9871258,42.2128422 99.6479503,41.9853328 99.6479503,41.5321055 C99.6479503,41.0779824 99.930894,40.8513688 100.44055,40.8513688 L100.610137,40.8513688 L100.610137,40.170632 C100.610137,39.2623859 101.233149,38.5816492 102.139104,38.5816492 C102.591636,38.5816492 103.158416,38.6945082 103.158416,39.2623859 C103.158416,39.716509 102.931704,39.9431227 102.47828,39.9431227 C102.25246,39.9431227 102.139104,40.0568773 102.139104,40.4536752 L102.139104,40.8513688 L102.535404,40.8513688 C102.987936,40.8513688 103.328004,41.0779824 103.328004,41.5321055 C103.328004,41.9853328 103.04506,42.2128422 102.535404,42.2128422 L102.08198,42.2128422 L102.08198,45.2197279 C102.08198,45.673851 101.799037,46.0142193 101.346505,46.0142193 C100.893081,46.0142193 100.610137,45.673851 100.610137,45.2197279 L100.610137,42.2128422 Z M105.422858,43.347702 C105.422858,44.0284387 105.762033,44.5954207 106.442169,44.5954207 C107.121413,44.5954207 107.461481,44.0284387 107.461481,43.347702 C107.461481,42.6669652 107.121413,42.0990875 106.442169,42.0990875 C105.762926,42.0990875 105.422858,42.6669652 105.422858,43.347702 Z M108.933323,45.2197279 C108.933323,45.673851 108.65038,46.0142193 108.196956,46.0142193 C107.85778,46.0142193 107.631068,45.78671 107.517712,45.5600963 C107.178537,45.9568941 106.781345,46.127974 106.215457,46.127974 C104.913202,46.127974 103.894784,44.9366848 103.894784,43.4041314 C103.894784,41.9289033 104.913202,40.6811846 106.215457,40.6811846 C106.781345,40.6811846 107.177644,40.8513688 107.517712,41.2481666 C107.631068,41.0215529 107.856888,40.7940436 108.196956,40.7940436 C108.65038,40.7940436 108.933323,41.1344119 108.933323,41.588535 L108.933323,45.2197279 L108.933323,45.2197279 Z M112.613377,40.6802889 C113.29262,40.6802889 114.368163,40.850473 114.368163,41.6449645 C114.368163,42.042658 114.085219,42.3257012 113.746044,42.3257012 C113.349744,42.3257012 113.236388,42.0990875 112.669608,42.0990875 C111.934133,42.0990875 111.537834,42.6669652 111.537834,43.347702 C111.537834,44.0284387 111.877009,44.5954207 112.557145,44.5954207 C113.179264,44.5954207 113.519332,44.3123775 113.68892,44.3123775 C114.028095,44.3123775 114.311931,44.6527459 114.311931,44.9931143 C114.311931,45.7302805 113.123032,46.0142193 112.557145,46.0142193 C111.028178,46.0142193 110.065098,44.8229301 110.065098,43.2912725 C110.065098,41.8724738 111.08441,40.6802889 112.613377,40.6802889 M116.350554,42.2128422 L116.180966,42.2128422 C115.727542,42.2128422 115.387475,41.9853328 115.387475,41.5321055 C115.387475,41.0779824 115.670418,40.8513688 116.180074,40.8513688 L116.349662,40.8513688 L116.349662,39.8302637 C116.349662,39.3761406 116.633498,39.0357723 117.086029,39.0357723 C117.539453,39.0357723 117.822397,39.3761406 117.822397,39.829368 L117.822397,40.7940436 L118.218697,40.7940436 C118.671228,40.7940436 119.011296,41.0215529 119.011296,41.4747803 C119.011296,41.9289033 118.728352,42.155517 118.218697,42.155517 L117.822397,42.155517 L117.822397,45.1632984 C117.822397,45.6165258 117.539453,45.9568941 117.086029,45.9568941 C116.633498,45.9568941 116.350554,45.6165258 116.350554,45.1632984 L116.350554,42.2128422 L116.350554,42.2128422 Z M124.559492,44.0848682 C124.559492,45.4463416 123.483949,46.0706488 122.238818,46.0706488 C120.992794,46.0706488 119.917251,45.4463416 119.917251,44.0848682 L119.917251,41.5321055 C119.917251,41.0779824 120.200195,40.7376141 120.652726,40.7376141 C121.10615,40.7376141 121.389094,41.0779824 121.389094,41.5321055 L121.389094,43.8582545 C121.389094,44.4252365 121.841626,44.7091754 122.238818,44.7091754 C122.635117,44.7091754 123.031417,44.4252365 123.031417,43.8582545 L123.031417,41.5321055 C123.031417,41.0779824 123.314361,40.7376141 123.766892,40.7376141 C124.220316,40.7376141 124.50326,41.0779824 124.50326,41.5321055 L124.50326,44.0848682 L124.559492,44.0848682 Z M125.748391,41.5321055 C125.748391,41.0779824 126.032227,40.7376141 126.484758,40.7376141 C126.881058,40.7376141 127.10777,41.0215529 127.221126,41.1917371 C127.446945,40.9077982 127.843245,40.6238594 128.239545,40.6238594 C128.635845,40.6238594 128.975913,40.9077982 128.975913,41.4183508 C128.975913,41.9289033 128.579613,42.042658 128.013725,42.2128422 C127.390714,42.3830264 127.164002,42.5532105 127.164002,43.347702 L127.164002,45.1632984 C127.164002,45.6165258 126.881058,45.9568941 126.428527,45.9568941 C125.975103,45.9568941 125.692159,45.6165258 125.692159,45.1632984 L125.692159,41.5321055 L125.748391,41.5321055 L125.748391,41.5321055 Z M129.995224,41.5321055 C129.995224,41.0779824 130.278168,40.7376141 130.730699,40.7376141 C131.184123,40.7376141 131.467067,41.0779824 131.467067,41.5321055 L131.467067,45.1632984 C131.467067,45.6165258 131.184123,45.9568941 130.730699,45.9568941 C130.278168,45.9568941 129.995224,45.6165258 129.995224,45.1632984 L129.995224,41.5321055 Z M130.730699,38.524324 C131.240355,38.524324 131.636654,38.9220176 131.636654,39.4325701 C131.636654,39.9431227 131.240355,40.3399205 130.730699,40.3399205 C130.221936,40.3399205 129.825636,39.9431227 129.825636,39.4325701 C129.825636,38.9220176 130.221936,38.524324 130.730699,38.524324 Z M132.655966,41.5321055 C132.655966,41.0779824 132.938909,40.7376141 133.392333,40.7376141 C133.788633,40.7376141 134.015345,41.0215529 134.127808,41.1917371 C134.35452,40.7940436 134.75082,40.6238594 135.430956,40.6238594 C136.449375,40.6238594 137.299099,41.1344119 137.299099,42.3830264 L137.299099,45.1632984 C137.299099,45.6165258 137.015262,45.9568941 136.562731,45.9568941 C136.110199,45.9568941 135.826363,45.6165258 135.826363,45.1632984 L135.826363,42.7807199 C135.826363,42.2701674 135.54342,41.8724738 134.977532,41.8724738 C134.467876,41.8724738 134.184933,42.2692717 134.184933,42.7798242 L134.184933,45.1624027 C134.184933,45.6165258 133.901989,45.9568941 133.448565,45.9568941 C132.996034,45.9568941 132.71309,45.6165258 132.71309,45.1632984 L132.71309,41.5321055 L132.655966,41.5321055 L132.655966,41.5321055 Z M140.922027,42.0990875 C140.243677,42.0990875 139.903609,42.6669652 139.903609,43.347702 C139.903609,44.0848682 140.242784,44.6527459 140.922027,44.6527459 C141.602163,44.6527459 141.941339,44.0848682 141.941339,43.347702 C141.941339,42.6669652 141.545039,42.0990875 140.922027,42.0990875 Z M143.413182,45.3899121 C143.413182,47.3192633 142.168051,48 140.696208,48 C139.903609,48 138.487998,47.7160611 138.487998,46.8651402 C138.487998,46.5247719 138.827173,46.240833 139.111009,46.240833 C139.563541,46.240833 139.78936,46.6949561 140.696208,46.6949561 C141.602163,46.6949561 141.941339,46.1844035 141.941339,45.3899121 C141.602163,45.8440352 141.092508,45.9568941 140.582852,45.9568941 C139.167241,45.9568941 138.431766,44.7091754 138.431766,43.347702 C138.431766,41.8724738 139.450185,40.6247551 140.75244,40.6247551 C141.318327,40.6247551 141.714627,40.7949393 142.054695,41.1917371 C142.168051,40.9642277 142.39387,40.7376141 142.733938,40.7376141 C143.187362,40.7376141 143.470306,41.0779824 143.470306,41.5321055 L143.470306,45.3899121 L143.413182,45.3899121 L143.413182,45.3899121 Z" id="Shape"></path>
            </g>
        </g>
    </g>
</svg>