<?xml version="1.0" encoding="UTF-8"?>
<svg width="235px" height="60px" viewBox="0 0 235 60" version="1.1" xmlns="http://www.w3.org/2000/svg" xmlns:xlink="http://www.w3.org/1999/xlink">
    <defs>
        <polygon id="path-1" points="0 0 9.87539476 0 9.87539476 10.3327284 0 10.3327284"></polygon>
    </defs>
    <g id="Designs" stroke="none" stroke-width="1" fill="none" fill-rule="evenodd">
        <g id="Desktop---Home-Page-V3" transform="translate(-100, -42)">
            <g id="MTC-logo" transform="translate(100, 42)">
                <path d="M124.414207,23.5639908 L125.734554,16.7740117 C125.77903,16.5447442 125.979612,16.3799854 126.213332,16.3799854 L139.671455,16.3799854 C140.591512,16.3799854 141.383372,15.7279243 141.559534,14.8248022 L144.374647,0.39402626 C144.419124,0.164758768 144.619705,0 144.852553,0 L151.912138,0 C152.219114,0 152.449346,0.279828384 152.390916,0.580578515 L150.767953,8.90481912 C149.260978,17.4504816 141.361569,24.1445693 132.785417,24.1445693 L124.892985,24.1445693 C124.586009,24.1445693 124.355776,23.8647409 124.414207,23.5639908" id="Fill-1" fill="#000000"></path>
                <path d="M166.237905,16.9599537 L164.917558,23.7499328 C164.873081,23.9792003 164.6725,24.1439591 164.438779,24.1439591 L150.980656,24.1439591 C150.060599,24.1439591 149.26874,24.7960202 149.092577,25.6991424 L146.277464,40.1299182 C146.232988,40.3591857 146.032407,40.5239445 145.799558,40.5239445 L138.739974,40.5239445 C138.432997,40.5239445 138.202765,40.2441161 138.261195,39.943366 L139.884158,31.6191254 C141.391133,23.0734629 149.290542,16.3793752 157.866694,16.3793752 L165.759126,16.3793752 C166.066103,16.3793752 166.296335,16.6592036 166.237905,16.9599537" id="Fill-3" fill="#000000"></path>
                <path d="M60.9916687,33.6302284 C61.3623078,31.7629624 61.6605633,29.0073938 61.7015516,27.2726322 L59.9547514,27.2726322 C56.5003952,27.2726322 53.0992366,27.5088736 49.764357,27.9578194 C50.0137753,28.6247002 50.1489496,29.3944461 50.1489496,30.25834 C50.1489496,31.7838842 49.9099964,33.4698284 49.5908107,35.0755726 L45.4274438,56.5133906 L56.583244,56.5133906 L60.9916687,33.6302284 Z" id="Fill-5" fill="#000000"></path>
                <path d="M33.6791444,56.5132163 L37.1535587,38.6887585 C37.8451276,35.0954482 39.0050099,32.0644099 40.4230314,29.8205524 C35.6858279,31.0810878 31.1256592,32.7853385 26.7931064,34.8932046 C26.7913622,34.9001786 26.7904901,34.9080242 26.7887459,34.9149981 L22.5887511,56.5132163 L33.6791444,56.5132163 Z" id="Fill-7" fill="#000000"></path>
                <path d="M14.311116,38.6617346 C15.7771026,31.0531921 19.8052953,25.6013332 23.6791277,25.6013332 C26.4698219,25.6013332 27.3471464,27.7693493 27.3471464,30.4185657 C27.3471464,30.668755 27.3305767,30.9302768 27.3157511,31.1909269 C37.2811457,26.6622402 48.3305507,24.139426 59.9546642,24.139426 L61.4755926,24.139426 C60.6130936,19.1800999 57.3104814,16.3678683 52.1415925,16.3678683 C47.119215,16.3678683 42.2555582,18.6962845 38.7480044,23.7541172 C38.4288187,20.3020287 35.718357,16.3678683 29.4994693,16.3678683 C25.1224399,16.3678683 20.9285497,18.0137125 17.6006468,21.7831141 L18.6532618,16.3678683 L7.80792639,16.3678683 L1.22101593,50.2401788 C5.1759529,45.8692768 9.49368012,42.0684926 14.311116,38.6617346" id="Fill-9" fill="#000000"></path>
                <path d="M13.4319601,43.1986157 C8.40783844,47.0787282 3.93400676,51.5193693 0,56.5126933 L0,56.513565 L10.8470796,56.513565 L13.4319601,43.1986157 Z" id="Fill-11" fill="#000000"></path>
                <path d="M65.5313434,48.9659571 C65.5313434,53.8633897 68.8008161,57.3956782 75.6563308,57.3956782 C78.1287115,57.3956782 80.9987661,57.0748781 82.4333573,56.5134778 L84.2316109,47.2878586 C83.1955657,47.4482586 81.6362653,47.600813 80.6002201,47.600813 C78.1287115,47.600813 77.3307474,46.2365407 77.3307474,44.3091246 C77.3307474,42.9439806 77.649933,40.9372362 77.9682466,39.3306203 L80.3490576,27.2727193 L69.1121529,27.2727193 L66.3284354,41.6590365 C65.7702965,44.6299248 65.5313434,46.797941 65.5313434,48.9659571" id="Fill-13" fill="#000000"></path>
                <polygon id="Fill-15" fill="#000000" points="90.5434636 24.1397747 92.0303803 16.368217 82.4731247 16.368217 84.448413 6.21070816 72.6272067 8.98109633 71.2030805 16.368217 66.1702379 16.368217 64.6545421 24.1397747"></polygon>
                <path d="M115.202474,46.1374239 L113.296953,55.9375195 C110.822828,56.7011633 107.123414,57.3157397 103.642895,57.3157397 C93.995814,57.3157397 87.2187875,51.4550349 87.2187875,41.2582979 C87.2187875,36.0322195 88.70396,31.2332935 91.3376777,27.2729809 L106.143183,27.2729809 C101.774874,29.7713863 99.2588888,34.7542494 99.2588888,39.9733538 C99.2588888,45.3528584 102.605978,48.0831465 106.912368,48.0831465 C110.620503,48.0831465 113.264685,46.9219895 115.202474,46.1374239" id="Fill-17" fill="#000000"></path>
                <path d="M119.469881,24.1397747 L120.984705,16.3725757 L112.651866,16.368217 C104.932981,16.368217 98.363512,19.3312596 93.8338665,24.1397747 L119.469881,24.1397747 Z" id="Fill-19" fill="#000000"></path>
                <path d="M182.169891,15.4295279 L179.080941,22.8968485 C178.894314,23.3274878 178.672802,23.6413141 178.417279,23.8391989 C178.161756,24.0370838 177.85914,24.1355904 177.509432,24.1355904 L176.584142,24.1355904 L175.607399,18.2731421 L172.482694,24.1355904 L171.575718,24.1355904 C170.865835,24.1355904 170.487347,23.7223858 170.440254,22.8968485 L169.951883,15.4295279 L171.994322,15.4295279 L172.168741,21.5883675 L175.293446,15.6561801 L176.060887,15.6561801 C176.514375,15.6561801 176.776874,15.877602 176.846642,16.3187022 L177.719606,21.5709327 L180.057684,15.4295279 L182.169891,15.4295279 Z" id="Fill-21" fill="#000000"></path>
                <path d="M184.246603,11.9226941 L186.253287,11.9226941 L185.468404,16.4069222 C185.793695,16.0573546 186.152124,15.7845002 186.541949,15.5866153 C186.931775,15.3887304 187.306774,15.2902239 187.66782,15.2902239 L188.680319,15.2902239 C189.517527,15.2902239 190.175085,15.5116457 190.652119,15.9527459 C191.129153,16.3947178 191.368106,16.9936029 191.368106,17.7502728 C191.368106,17.9481577 191.350664,18.1626056 191.315781,18.39536 L190.320724,24.1357647 L188.313168,24.1357647 L189.308225,18.4476644 C189.3309,18.2846491 189.343109,18.1626056 189.343109,18.0815338 C189.343109,17.7677076 189.258516,17.5140314 189.090202,17.3222487 C188.921016,17.130466 188.691656,17.0345746 188.400377,17.0345746 L187.2841,17.0345746 C186.82974,17.0345746 186.390205,17.2036921 185.965497,17.5401836 C185.540788,17.8784185 185.229451,18.3203904 185.032358,18.8669711 L184.107069,24.1357647 L182.099513,24.1357647 L184.246603,11.9226941 Z" id="Fill-23" fill="#000000"></path>
                <path d="M199.536207,18.9189268 L199.57109,18.6922745 C199.594637,18.5876658 199.605974,18.4481874 199.605974,18.2738395 C199.605974,17.8658654 199.495218,17.5468088 199.274579,17.3140543 C199.053068,17.0812999 198.750452,16.9653585 198.366731,16.9653585 L196.935628,16.9653585 C196.458594,16.9653585 196.047839,17.1248869 195.705107,17.4448153 C195.361503,17.7647437 195.137375,18.1979982 195.033596,18.7445789 L194.99784,18.9189268 L199.536207,18.9189268 Z M193.479528,23.5687853 C192.897843,23.098046 192.607436,22.4608044 192.607436,21.6579323 C192.607436,21.4609192 192.624006,21.2569321 192.659762,21.0477147 L193.060924,18.7097093 C193.24668,17.6400849 193.691446,16.8023432 194.396097,16.197356 C195.099875,15.5923688 195.98156,15.2898752 197.04028,15.2898752 L198.436499,15.2898752 C199.401905,15.2898752 200.170218,15.5400644 200.740566,16.0404429 C201.310042,16.5399496 201.596088,17.2033434 201.596088,18.0297525 C201.596088,18.215433 201.578646,18.4246505 201.54289,18.6574049 L201.246379,20.4191905 L194.753654,20.4191905 L194.649003,21.0477147 C194.636794,21.1174538 194.631562,21.2159604 194.631562,21.3441061 C194.631562,21.7276715 194.74755,22.0301651 194.98127,22.2515869 C195.213247,22.472137 195.533305,22.5828479 195.940572,22.5828479 L197.301907,22.5828479 C197.791151,22.5828479 198.192313,22.472137 198.506266,22.2515869 C198.820219,22.0301651 199.012951,21.7276715 199.082719,21.3441061 L201.037077,21.3441061 C200.885333,22.2629195 200.47545,22.9812329 199.806555,23.4990462 C199.137661,24.0168594 198.285627,24.2757661 197.249582,24.2757661 L195.870804,24.2757661 C194.858305,24.2757661 194.061213,24.0395247 193.479528,23.5687853 L193.479528,23.5687853 Z" id="Fill-25" fill="#000000"></path>
                <path d="M203.916899,15.4295279 L205.784048,15.4295279 L205.574746,16.6159653 C205.889571,16.2437326 206.267187,15.9473411 206.709337,15.7259193 C207.151488,15.5053692 207.605848,15.3946583 208.070673,15.3946583 L209.187823,15.3946583 L208.87387,17.139009 L207.826487,17.139009 C207.162825,17.139009 206.593349,17.3429961 206.116315,17.7500984 C205.638408,18.1572008 205.341897,18.6863467 205.225909,19.3375361 L204.387829,24.1355904 L202.381145,24.1355904 L203.916899,15.4295279 Z" id="Fill-27" fill="#000000"></path>
                <path d="M215.71578,18.9189268 L215.750663,18.6922745 C215.77421,18.5876658 215.785547,18.4481874 215.785547,18.2738395 C215.785547,17.8658654 215.674791,17.5468088 215.454152,17.3140543 C215.232641,17.0812999 214.930025,16.9653585 214.546304,16.9653585 L213.115201,16.9653585 C212.638167,16.9653585 212.227412,17.1248869 211.88468,17.4448153 C211.541076,17.7647437 211.316948,18.1979982 211.213169,18.7445789 L211.177413,18.9189268 L215.71578,18.9189268 Z M209.659101,23.5687853 C209.077416,23.098046 208.787009,22.4608044 208.787009,21.6579323 C208.787009,21.4609192 208.803579,21.2569321 208.839335,21.0477147 L209.240497,18.7097093 C209.426253,17.6400849 209.871892,16.8023432 210.57567,16.197356 C211.279448,15.5923688 212.161133,15.2898752 213.219853,15.2898752 L214.616072,15.2898752 C215.58235,15.2898752 216.349791,15.5400644 216.920139,16.0404429 C217.489615,16.5399496 217.775661,17.2033434 217.775661,18.0297525 C217.775661,18.215433 217.758219,18.4246505 217.723335,18.6574049 L217.425952,20.4191905 L210.933227,20.4191905 L210.828576,21.0477147 C210.817239,21.1174538 210.811135,21.2159604 210.811135,21.3441061 C210.811135,21.7276715 210.927995,22.0301651 211.160843,22.2515869 C211.39282,22.472137 211.712878,22.5828479 212.120145,22.5828479 L213.48148,22.5828479 C213.970724,22.5828479 214.371886,22.472137 214.685839,22.2515869 C214.999792,22.0301651 215.192525,21.7276715 215.262292,21.3441061 L217.21665,21.3441061 C217.065778,22.2629195 216.655023,22.9812329 215.986128,23.4990462 C215.317234,24.0168594 214.4652,24.2757661 213.429155,24.2757661 L212.050377,24.2757661 C211.037878,24.2757661 210.240786,24.0395247 209.659101,23.5687853 L209.659101,23.5687853 Z" id="Fill-29" fill="#000000"></path>
                <path d="M158.767478,38.6995681 C159.35614,38.6995681 159.848,38.495581 160.242185,38.0876069 C160.637243,37.6796328 160.901487,37.1077717 161.035789,36.3720236 L161.396835,34.3260509 C161.422998,34.111603 161.436951,33.964279 161.436951,33.884079 C161.436951,33.4028788 161.303521,33.0245438 161.035789,32.7508176 C160.768057,32.4762197 160.393057,32.3393566 159.911663,32.3393566 L158.647129,32.3393566 C158.204979,32.3393566 157.760212,32.5137045 157.311957,32.8606568 C156.863701,33.2084809 156.506144,33.6705028 156.238411,34.2449791 L155.837249,36.5725236 C155.783179,37.2149957 155.910505,37.7301937 156.218353,38.1181178 C156.52533,38.5060419 156.954399,38.6995681 157.502945,38.6995681 L158.767478,38.6995681 Z M154.591902,30.5130623 L156.739864,30.5130623 L156.539283,31.6977563 C156.900329,31.2688604 157.295387,30.9384712 157.723584,30.7039732 C158.151781,30.4694753 158.55992,30.3526622 158.948001,30.3526622 L160.232592,30.3526622 C161.329684,30.3526622 162.200032,30.6307471 162.841892,31.1851735 C163.484623,31.7404715 163.805553,32.4797066 163.805553,33.4028788 C163.805553,33.5763549 163.778518,33.8370051 163.725321,34.1848291 L163.3041,36.5123736 C163.076484,37.8234698 162.577648,38.846892 161.808463,39.5826402 C161.038405,40.3183883 160.085209,40.6862624 158.948001,40.6862624 L157.583177,40.6862624 C157.113992,40.6862624 156.672713,40.5886276 156.258469,40.3951014 C155.843354,40.2015752 155.522424,39.9435403 155.294808,39.6227402 L154.432309,44.5384793 L152.123882,44.5384793 L154.591902,30.5130623 Z" id="Fill-31" fill="#000000"></path>
                <path d="M166.535114,30.5133238 L168.683076,30.5133238 L168.442379,31.8775961 C168.803425,31.449572 169.237727,31.1087219 169.746156,30.854174 C170.255458,30.6004978 170.776969,30.4732238 171.312433,30.4732238 L172.597025,30.4732238 L172.235979,32.4799682 L171.030748,32.4799682 C170.268539,32.4799682 169.612726,32.7135943 169.06418,33.1817185 C168.515635,33.6507143 168.173775,34.2583168 168.040344,35.0080127 L167.076683,40.5252521 L164.769128,40.5252521 L166.535114,30.5133238 Z" id="Fill-33" fill="#000000"></path>
                <path d="M177.695274,38.6995681 C178.270855,38.6995681 178.759227,38.5121441 179.160389,38.1372961 C179.562423,37.7633198 179.816202,37.2620696 179.923469,36.6326737 L180.324632,34.4053792 C180.351666,34.299027 180.364748,34.1386269 180.364748,33.924179 C180.364748,33.4429788 180.226957,33.0585417 179.95312,32.7708676 C179.679284,32.4831936 179.307772,32.3393566 178.839459,32.3393566 L177.153705,32.3393566 C176.564171,32.3393566 176.0758,32.5198066 175.687719,32.8807068 C175.299638,33.241607 175.052836,33.7507028 174.945568,34.4053792 L174.543534,36.6326737 C174.517371,36.7538455 174.503418,36.9203477 174.503418,37.1347956 C174.503418,37.6159958 174.63772,37.996946 174.905452,38.2785179 C175.173184,38.559218 175.540335,38.6995681 176.009521,38.6995681 L177.695274,38.6995681 Z M173.169117,39.8127794 C172.493246,39.2313292 172.155746,38.4589679 172.155746,37.4956958 C172.155746,37.2550957 172.175804,37.0144956 172.215921,36.7738955 L172.657199,34.2850792 C172.884815,33.0550547 173.399349,32.0917825 174.202546,31.3961344 C175.005743,30.7004863 176.009521,30.3526622 177.21388,30.3526622 L178.959808,30.3526622 C180.12405,30.3526622 181.044107,30.6403363 181.719979,31.2156843 C182.394978,31.7910324 182.73335,32.5599067 182.73335,33.5231788 C182.73335,33.6835789 182.706315,33.9372551 182.653117,34.2850792 L182.211839,36.7738955 C181.984223,38.0039199 181.472305,38.9637051 180.676085,39.6523793 C179.879865,40.3419253 178.865622,40.6862624 177.6351,40.6862624 L175.889172,40.6862624 C174.751092,40.6862624 173.844116,40.3951014 173.169117,39.8127794 L173.169117,39.8127794 Z" id="Fill-35" fill="#000000"></path>
                <path d="M189.075987,38.4988064 C189.638486,38.4988064 190.156509,38.2712824 190.631799,37.8162344 C191.106217,37.3620581 191.431507,36.7727622 191.605054,36.0509619 L191.925984,34.3057394 C191.9661,33.7303913 191.838774,33.2587802 191.544879,32.8909062 C191.250112,32.5230321 190.84895,32.339095 190.34052,32.339095 L188.93558,32.339095 C188.346918,32.339095 187.848082,32.5395951 187.439943,32.9414671 C187.031804,33.3424672 186.774536,33.8838175 186.667269,34.5663895 L186.346339,36.4319121 C186.319304,36.5530839 186.306223,36.72656 186.306223,36.954084 C186.306223,37.4352842 186.426572,37.8136192 186.667269,38.0873454 C186.907966,38.3619433 187.24285,38.4988064 187.671047,38.4988064 L189.075987,38.4988064 Z M184.489656,43.8460566 C183.880063,43.3439347 183.576575,42.6787974 183.576575,41.8497731 C183.576575,41.7155252 183.58268,41.609173 183.596633,41.528973 L185.864945,41.528973 C185.850991,41.8628492 185.947793,42.1304733 186.155351,42.3309733 C186.362909,42.5314734 186.647211,42.6317235 187.009129,42.6317235 L188.775115,42.6317235 C189.309708,42.6317235 189.758835,42.4442995 190.119881,42.0703232 C190.480927,41.6954752 190.714648,41.1802772 190.821915,40.5256008 L191.022496,39.3818786 C190.675404,39.7157548 190.30302,39.9807636 189.908835,40.1742898 C189.514649,40.3686877 189.149243,40.4654508 188.815232,40.4654508 L187.43035,40.4654508 C186.359421,40.4654508 185.510003,40.1838789 184.881225,39.6224787 C184.251574,39.0610784 183.937621,38.3052803 183.937621,37.3550842 C183.937621,37.2077602 183.963784,36.9471101 184.017854,36.5731339 L184.3789,34.4260394 C184.606516,33.1550432 185.114945,32.158645 185.905061,31.4359729 C186.694304,30.7141726 187.677152,30.3524007 188.855348,30.3524007 L190.099823,30.3524007 C190.621334,30.3524007 191.106217,30.4631116 191.555344,30.6836617 C192.002728,30.9042118 192.334123,31.1953728 192.548657,31.556273 L192.72918,30.5136725 L194.897201,30.5136725 L193.130342,40.5256008 C192.902726,41.8096731 192.397785,42.8095583 191.615519,43.5252565 C190.83238,44.2400829 189.859126,44.5983678 188.694011,44.5983678 L186.928025,44.5983678 C185.911165,44.5983678 185.098376,44.3473068 184.489656,43.8460566 L184.489656,43.8460566 Z" id="Fill-37" fill="#000000"></path>
                <path d="M197.466035,30.5133238 L199.613997,30.5133238 L199.3733,31.8775961 C199.734346,31.449572 200.168648,31.1087219 200.677077,30.854174 C201.186379,30.6004978 201.70789,30.4732238 202.243354,30.4732238 L203.527946,30.4732238 L203.1669,32.4799682 L201.961669,32.4799682 C201.19946,32.4799682 200.543647,32.7135943 199.995101,33.1817185 C199.446556,33.6507143 199.104696,34.2583168 198.971265,35.0080127 L198.007604,40.5252521 L195.700049,40.5252521 L197.466035,30.5133238 Z" id="Fill-39" fill="#000000"></path>
                <path d="M211.034739,34.5262023 L211.074855,34.2646805 C211.101018,34.1443804 211.114971,33.9848521 211.114971,33.7834802 C211.114971,33.3153561 210.987646,32.9483538 210.733867,32.679858 C210.479216,32.412234 210.131252,32.2788578 209.689973,32.2788578 L208.044336,32.2788578 C207.494918,32.2788578 207.023116,32.4627949 206.62893,32.830669 C206.233873,33.198543 205.976606,33.697178 205.856257,34.3257022 L205.816141,34.5262023 L211.034739,34.5262023 Z M204.070213,39.8734525 C203.400446,39.3312305 203.066435,38.5989693 203.066435,37.6766689 C203.066435,37.4491449 203.086493,37.214647 203.126609,36.9740469 L203.587946,34.2856022 C203.801608,33.054706 204.313526,32.0914339 205.122828,31.3957857 C205.933001,30.7010093 206.946372,30.3523135 208.164684,30.3523135 L209.770206,30.3523135 C210.880379,30.3523135 211.763808,30.6408593 212.419621,31.2153356 C213.075434,31.7906837 213.403341,32.5534558 213.403341,33.5027801 C213.403341,33.717228 213.383283,33.9578281 213.343166,34.2254522 L213.002178,36.2522465 L205.535327,36.2522465 L205.414978,36.9740469 C205.401025,37.0542469 205.394048,37.167573 205.394048,37.314897 C205.394048,37.7559972 205.52835,38.104693 205.796083,38.3583692 C206.063815,38.6129171 206.430966,38.7393194 206.900151,38.7393194 L208.465556,38.7393194 C209.028055,38.7393194 209.489392,38.6129171 209.850438,38.3583692 C210.211484,38.104693 210.432996,37.7559972 210.513228,37.314897 L212.761481,37.314897 C212.587063,38.372317 212.115261,39.1978544 211.346076,39.7923807 C210.576019,40.3877788 209.595787,40.6859137 208.405382,40.6859137 L206.819919,40.6859137 C205.655676,40.6859137 204.738235,40.4148027 204.070213,39.8734525 L204.070213,39.8734525 Z" id="Fill-41" fill="#000000"></path>
                <path d="M215.249559,39.9334282 C214.619909,39.4313062 214.305956,38.7530929 214.305956,37.8970447 C214.305956,37.7096207 214.326014,37.5152228 214.36613,37.3147227 L216.634441,37.3147227 C216.62136,37.3818466 216.614383,37.4759945 216.614383,37.5962945 C216.614383,37.9441186 216.727755,38.2213318 216.955371,38.4288058 C217.182987,38.6362798 217.504789,38.739145 217.919033,38.739145 L219.705949,38.739145 C220.174263,38.739145 220.544902,38.6659189 220.819611,38.5185949 C221.093447,38.3721427 221.257401,38.1576948 221.31147,37.8769946 L221.411761,37.4358945 C221.437924,37.2615466 221.388215,37.1046334 221.260889,36.9642834 C221.133564,36.8230616 220.943448,36.7271702 220.688797,36.6731224 L217.317289,36.0707504 C216.634441,35.9373742 216.102465,35.6898002 215.721361,35.3289001 C215.339385,34.9671282 215.149269,34.5399758 215.149269,34.0448278 C215.149269,33.9777038 215.16235,33.8643777 215.189385,33.7039776 L215.309734,33.0414556 C215.456245,32.1984835 215.878338,31.5403201 216.574267,31.0652221 C217.270196,30.5901241 218.166707,30.3530109 219.263799,30.3530109 L220.86932,30.3530109 C221.900132,30.3530109 222.709434,30.5866371 223.298096,31.0547612 C223.886758,31.5237571 224.181525,32.1522813 224.181525,32.9412055 C224.181525,33.1818056 224.168444,33.3622557 224.141409,33.4825558 L221.873098,33.4825558 C221.887051,33.4293797 221.893156,33.3491796 221.893156,33.2419557 C221.893156,32.9481794 221.796354,32.7171685 221.602749,32.5497945 C221.408273,32.3824205 221.137052,32.2987335 220.789087,32.2987335 L219.203624,32.2987335 C218.762346,32.2987335 218.397811,32.3728314 218.110021,32.5201553 C217.822231,32.6674793 217.651301,32.8740816 217.598103,33.1417056 L217.51787,33.5427058 C217.490836,33.7170537 217.537929,33.8739668 217.658277,34.0143169 C217.778626,34.1546669 217.97223,34.2453278 218.239963,34.2854279 L221.712633,34.9270281 C222.355364,35.061276 222.856817,35.30885 223.217863,35.6697502 C223.579782,36.0306504 223.760305,36.4525723 223.760305,36.9337725 C223.760305,37.0680204 223.753328,37.1682704 223.740246,37.2345226 L223.59984,37.9772447 C223.452456,38.8332929 223.031236,39.4984301 222.335306,39.9735282 C221.639377,40.4486262 220.73589,40.6857394 219.624845,40.6857394 L217.8388,40.6857394 C216.741709,40.6857394 215.878338,40.4355501 215.249559,39.9334282" id="Fill-43" fill="#000000"></path>
                <g id="Group-47" transform="translate(225.1246, 30.353)">
                    <mask id="mask-2" fill="white">
                        <use xlink:href="#path-1"></use>
                    </mask>
                    <g id="Clip-46"></g>
                    <path d="M0.943603484,9.58041724 C0.3139531,9.07829528 0,8.40008194 0,7.54403374 C0,7.35660975 0.0200581147,7.16221184 0.0601743442,6.96171175 L2.32848549,6.96171175 C2.31540411,7.02883569 2.30842738,7.12298356 2.30842738,7.24328361 C2.30842738,7.59110768 2.42179933,7.86832084 2.64941533,8.07579484 C2.87703132,8.28326885 3.19883325,8.38613411 3.61307693,8.38613411 L5.39999332,8.38613411 C5.86830669,8.38613411 6.23894577,8.31290799 6.51365473,8.16558401 C6.7874916,8.01913178 6.95144489,7.80468386 7.00551459,7.52398373 L7.10580516,7.08288354 C7.13196792,6.90853564 7.08225868,6.75162253 6.95493326,6.61127246 C6.82760783,6.47005066 6.63749179,6.37415932 6.38284094,6.32011147 L3.01133348,5.71773946 C2.32848549,5.58436332 1.79650941,5.3367893 1.41540523,4.97588914 C1.03342895,4.61411724 0.84331291,4.18696488 0.84331291,3.69181684 C0.84331291,3.62469289 0.856394289,3.51136676 0.88342914,3.35096669 L1.00377783,2.68844466 C1.15028927,1.84547255 1.57238178,1.18730922 2.26831115,0.712211182 C2.96424052,0.237113147 3.86075104,0 4.9578427,0 L6.56336397,0 C7.59417665,0 8.40347798,0.233626189 8.99214004,0.701750308 C9.5808021,1.17074617 9.87556918,1.79927035 9.87556918,2.58819461 C9.87556918,2.82879472 9.8624878,3.0092448 9.83545295,3.12954485 L7.5671418,3.12954485 C7.58022318,3.07636874 7.58719992,2.9961687 7.58719992,2.88894474 C7.58719992,2.59516853 7.49039771,2.36415756 7.2967933,2.19678357 C7.1023168,2.02940959 6.8310962,1.94572259 6.48313152,1.94572259 L4.89766836,1.94572259 C4.45638984,1.94572259 4.0918554,2.01982045 3.80406506,2.16714443 C3.51627472,2.31446841 3.3453447,2.52107067 3.29214709,2.7886947 L3.21191463,3.18969488 C3.18487978,3.36404278 3.23197275,3.52095589 3.35232143,3.66130595 C3.47267012,3.80165601 3.66627453,3.89231692 3.93400676,3.93241694 L7.40667688,4.57401722 C8.04940865,4.70826511 8.55086152,4.95583913 8.91190758,5.31673929 C9.27382574,5.67763945 9.45434877,6.09956137 9.45434877,6.58076158 C9.45434877,6.71500947 9.44737203,6.81525951 9.43429066,6.88151171 L9.29388385,7.62423378 C9.14650031,8.48028198 8.7252799,9.14541923 8.02935053,9.62051726 C7.33342116,10.0956153 6.42993391,10.3327284 5.31888877,10.3327284 L3.53284447,10.3327284 C2.4357528,10.3327284 1.57238178,10.0825392 0.943603484,9.58041724" id="Fill-45" fill="#000000" mask="url(#mask-2)"></path>
                </g>
                <path d="M137.437156,44.2977049 L139.444711,44.2977049 L138.658956,48.7819329 C138.984247,48.4323654 139.342676,48.1595109 139.732502,47.961626 C140.122327,47.7637412 140.497326,47.6652346 140.858372,47.6652346 L141.870871,47.6652346 C142.708079,47.6652346 143.365637,47.8857847 143.842671,48.3277566 C144.319705,48.7697286 144.558658,49.3686136 144.558658,50.1252835 C144.558658,50.3231684 144.541217,50.5376163 144.506333,50.7703707 L143.511276,56.5107754 L141.50372,56.5107754 L142.498777,50.8226751 C142.522324,50.6596598 142.533661,50.5376163 142.533661,50.4565445 C142.533661,50.1427183 142.449068,49.8890421 142.280754,49.6972594 C142.111568,49.5054767 141.882208,49.4095854 141.59093,49.4095854 L140.474652,49.4095854 C140.020292,49.4095854 139.580758,49.5787028 139.156049,49.9151943 C138.73134,50.2534292 138.420003,50.6954011 138.22291,51.2411101 L137.297621,56.5107754 L135.290065,56.5107754 L137.437156,44.2977049 Z" id="Fill-48" fill="#000000"></path>
                <path d="M149.759553,55.0800765 C150.213041,55.0800765 150.652575,54.9493156 151.077284,54.686922 C151.501993,54.4254002 151.824667,54.0801913 152.046178,53.649552 L152.133387,53.2302453 C151.958969,53.0681017 151.699958,52.9373408 151.356353,52.8379625 C151.012749,52.7394559 150.643854,52.6897668 150.248797,52.6897668 L149.148217,52.6897668 C148.788043,52.6897668 148.491531,52.7743255 148.258683,52.9425713 C148.025834,53.1116887 147.8863,53.3409562 147.839207,53.6321172 L147.734556,54.1202913 C147.723218,54.1551609 147.717114,54.2135675 147.717114,54.2946392 C147.717114,54.5282654 147.813044,54.7165612 148.004904,54.8621417 C148.197636,55.0077222 148.456648,55.0800765 148.781938,55.0800765 L149.759553,55.0800765 Z M146.486592,56.0921661 C145.992116,55.7199333 145.745314,55.225657 145.745314,54.6093372 C145.745314,54.5160611 145.756651,54.3765828 145.780198,54.1900305 L145.884849,53.5449433 C146.024383,52.7769407 146.381941,52.1841579 146.958394,51.7648512 C147.533974,51.3464162 148.264788,51.1371987 149.148217,51.1371987 L150.230483,51.1371987 C150.580192,51.1371987 150.961296,51.1842727 151.373795,51.276677 C151.787167,51.3699532 152.133387,51.4919967 152.412457,51.6428076 L152.586875,50.5609789 C152.610422,50.4450376 152.621759,50.3578636 152.621759,50.2994571 C152.621759,50.0091678 152.525829,49.7790286 152.333969,49.6099111 C152.142108,49.4416654 151.883097,49.3571066 151.557807,49.3571066 L150.10839,49.3571066 C149.713332,49.3571066 149.384554,49.4451523 149.122054,49.6186285 C148.860426,49.7938481 148.700833,50.031833 148.642403,50.3343266 L146.688045,50.3343266 C146.838917,49.5087893 147.226126,48.8575999 147.8488,48.3807584 C148.470601,47.9030451 149.247635,47.6650602 150.178157,47.6650602 L151.627574,47.6650602 C152.545887,47.6650602 153.2767,47.8768929 153.817397,48.3014301 C154.358966,48.726839 154.629315,49.2995718 154.629315,50.0205004 C154.629315,50.1835157 154.611873,50.3639658 154.576989,50.5609789 L153.529607,56.5106011 L151.661586,56.5106011 L151.87176,55.4113376 C151.510714,55.7957747 151.126993,56.0982683 150.719726,56.3188184 C150.311587,56.5393685 149.91653,56.6500794 149.532809,56.6500794 L148.502869,56.6500794 C147.653451,56.6500794 146.981068,56.4643989 146.486592,56.0921661 L146.486592,56.0921661 Z" id="Fill-50" fill="#000000"></path>
                <path d="M160.842708,54.9229891 C161.354626,54.9229891 161.781951,54.746026 162.125555,54.391228 C162.468287,54.03643 162.69852,53.5386667 162.81538,52.8988099 L163.129333,51.1195896 C163.15288,50.9339091 163.164217,50.8057634 163.164217,50.7360242 C163.164217,50.3167175 163.047356,49.9889434 162.81538,49.7500868 C162.582531,49.5112302 162.256369,49.3926736 161.837765,49.3926736 L160.738057,49.3926736 C160.354337,49.3926736 159.967128,49.5434845 159.577303,49.8459782 C159.187478,50.1484718 158.876141,50.5494719 158.643292,51.0498504 L158.294455,53.0731578 C158.247362,53.6319429 158.358118,54.080017 158.62585,54.4173802 C158.893583,54.7547434 159.265966,54.9229891 159.743,54.9229891 L160.842708,54.9229891 Z M157.212189,47.8043642 L159.08021,47.8043642 L158.905792,48.8338886 C159.219745,48.4616558 159.562477,48.1739818 159.93486,47.9699947 C160.307244,47.7668794 160.662185,47.6648859 160.999685,47.6648859 L162.116834,47.6648859 C163.070903,47.6648859 163.827879,47.9063577 164.386018,48.3893014 C164.944156,48.8722451 165.223226,49.5147171 165.223226,50.3167175 C165.223226,50.4684002 165.199679,50.6950524 165.153458,50.9975461 L164.78718,53.0208535 C164.589215,54.1610887 164.155785,55.0511348 163.486891,55.6901198 C162.817996,56.3308484 161.988637,56.6499051 160.999685,56.6499051 L159.812767,56.6499051 C159.4055,56.6499051 159.02178,56.5662181 158.660734,56.3971006 C158.30056,56.2288549 158.020618,56.0048178 157.823526,55.7258612 L157.072655,60 L155.065099,60 L157.212189,47.8043642 Z" id="Fill-52" fill="#000000"></path>
                <path d="M171.227579,54.9229891 C171.739497,54.9229891 172.166822,54.746026 172.510426,54.391228 C172.853158,54.03643 173.083391,53.5386667 173.200251,52.8988099 L173.514204,51.1195896 C173.53775,50.9339091 173.549088,50.8057634 173.549088,50.7360242 C173.549088,50.3167175 173.432227,49.9889434 173.200251,49.7500868 C172.967402,49.5112302 172.64124,49.3926736 172.222636,49.3926736 L171.122928,49.3926736 C170.739207,49.3926736 170.351999,49.5434845 169.962173,49.8459782 C169.572348,50.1484718 169.261012,50.5494719 169.028163,51.0498504 L168.679326,53.0731578 C168.632233,53.6319429 168.742989,54.080017 169.010721,54.4173802 C169.278453,54.7547434 169.650837,54.9229891 170.127871,54.9229891 L171.227579,54.9229891 Z M167.59706,47.8043642 L169.465081,47.8043642 L169.290663,48.8338886 C169.604616,48.4616558 169.947348,48.1739818 170.319731,47.9699947 C170.692114,47.7668794 171.047056,47.6648859 171.384555,47.6648859 L172.501705,47.6648859 C173.455774,47.6648859 174.21275,47.9063577 174.770888,48.3893014 C175.329027,48.8722451 175.608097,49.5147171 175.608097,50.3167175 C175.608097,50.4684002 175.58455,50.6950524 175.538329,50.9975461 L175.172051,53.0208535 C174.974086,54.1610887 174.540656,55.0511348 173.871762,55.6901198 C173.202867,56.3308484 172.373508,56.6499051 171.384555,56.6499051 L170.197638,56.6499051 C169.790371,56.6499051 169.406651,56.5662181 169.045605,56.3971006 C168.685431,56.2288549 168.405489,56.0048178 168.208397,55.7258612 L167.457525,60 L165.44997,60 L167.59706,47.8043642 Z" id="Fill-54" fill="#000000"></path>
                <path d="M183.532535,51.2940247 L183.567418,51.0673724 C183.590965,50.9627636 183.602302,50.8232853 183.602302,50.6489374 C183.602302,50.2409633 183.491546,49.9219067 183.270907,49.6891522 C183.049396,49.4563978 182.74678,49.3404564 182.363059,49.3404564 L180.931956,49.3404564 C180.454922,49.3404564 180.044167,49.4999847 179.701435,49.8199131 C179.35783,50.1398415 179.133703,50.5730961 179.029924,51.1196768 L178.994168,51.2940247 L183.532535,51.2940247 Z M177.475856,55.9438832 C176.894171,55.4722721 176.603764,54.8359023 176.603764,54.0330302 C176.603764,53.8360171 176.620334,53.63203 176.65609,53.4228126 L177.057252,51.0848072 C177.243007,50.0143111 177.688646,49.1774411 178.392425,48.5724539 C179.096203,47.9674667 179.977888,47.6649731 181.036607,47.6649731 L182.432827,47.6649731 C183.398232,47.6649731 184.166545,47.9151623 184.736894,48.4155408 C185.30637,48.9150475 185.592416,49.5784413 185.592416,50.4048504 C185.592416,50.5905309 185.574974,50.7997484 185.54009,51.0325028 L185.242707,52.7942884 L178.749982,52.7942884 L178.645331,53.4228126 C178.633994,53.4925517 178.62789,53.5910583 178.62789,53.719204 C178.62789,54.1027694 178.743878,54.405263 178.977598,54.6266848 C179.209575,54.8472349 179.529633,54.9579458 179.9369,54.9579458 L181.298235,54.9579458 C181.787479,54.9579458 182.188641,54.8472349 182.502594,54.6266848 C182.816547,54.405263 183.009279,54.1027694 183.079047,53.719204 L185.033405,53.719204 C184.881661,54.6380174 184.471778,55.3563308 183.802883,55.8741441 C183.133989,56.3919573 182.281955,56.650864 181.24591,56.650864 L179.867132,56.650864 C178.854633,56.650864 178.057541,56.4146226 177.475856,55.9438832 L177.475856,55.9438832 Z" id="Fill-56" fill="#000000"></path>
                <path d="M187.913227,47.8046257 L189.780376,47.8046257 L189.588515,48.9387588 C189.926015,48.5429891 190.301015,48.2317781 190.714386,48.0051258 C191.127758,47.7784736 191.526304,47.6651474 191.910024,47.6651474 L192.939965,47.6651474 C193.765836,47.6651474 194.418161,47.8856975 194.895195,48.3276694 C195.371357,48.7705131 195.61031,49.363296 195.61031,50.1077615 C195.61031,50.316979 195.592869,50.5384009 195.557985,50.7702836 L194.562928,56.5106883 L192.556244,56.5106883 L193.550429,50.8225879 C193.573976,50.6604444 193.586185,50.5384009 193.586185,50.4564573 C193.586185,50.1426311 193.501592,49.8898267 193.332406,49.6971722 C193.164092,49.5053895 192.93386,49.4094982 192.643454,49.4094982 L191.561187,49.4094982 C191.106828,49.4094982 190.668165,49.5812309 190.243457,49.9246962 C189.818748,50.2672899 189.507411,50.7066466 189.309446,51.2418946 L188.384157,56.5106883 L186.377473,56.5106883 L187.913227,47.8046257 Z" id="Fill-58" fill="#000000"></path>
                <path d="M197.512779,55.9960132 C196.965977,55.5601435 196.69214,54.9691041 196.69214,54.2246386 C196.69214,54.062495 196.709582,53.8933775 196.745338,53.7190296 L198.717138,53.7190296 C198.704929,53.7774362 198.699696,53.858508 198.699696,53.9631167 C198.699696,54.2664821 198.798242,54.5070822 198.996207,54.6875322 C199.194172,54.8679823 199.473242,54.9577715 199.834288,54.9577715 L201.387483,54.9577715 C201.79475,54.9577715 202.117424,54.8941345 202.356378,54.7659888 C202.594459,54.6378431 202.737482,54.4521626 202.783703,54.2080755 L202.871784,53.8236384 C202.894458,53.6728274 202.850854,53.5359643 202.740098,53.4139208 C202.629342,53.2918773 202.463645,53.2073185 202.243006,53.1611163 L199.31016,52.6372009 C198.717138,52.5212595 198.254929,52.3059399 197.922662,51.9921137 C197.591267,51.6774157 197.42557,51.3060547 197.42557,50.8754153 C197.42557,50.8170088 197.436907,50.7185022 197.460453,50.5790239 L197.565104,50.0028041 C197.693302,49.2705429 198.059581,48.6969383 198.664812,48.2846055 C199.270044,47.871401 200.049694,47.6647987 201.003763,47.6647987 L202.399982,47.6647987 C203.295621,47.6647987 203.999399,47.8687858 204.511317,48.2758881 C205.023235,48.6829905 205.27963,49.2295711 205.27963,49.9156301 C205.27963,50.1248476 205.268293,50.2817607 205.244746,50.3872412 L203.272074,50.3872412 C203.284283,50.3401673 203.290388,50.2704281 203.290388,50.177152 C203.290388,49.9217323 203.205795,49.7212322 203.036609,49.5756517 C202.868296,49.4300712 202.632831,49.3577169 202.330215,49.3577169 L200.951437,49.3577169 C200.567717,49.3577169 200.249403,49.4213538 199.999985,49.5494995 C199.749695,49.6776453 199.601439,49.8572236 199.555218,50.089978 L199.485451,50.4386739 C199.461904,50.5903565 199.502893,50.7272196 199.607544,50.8492632 C199.712195,50.9713067 199.880509,51.0497633 200.113357,51.0846328 L203.132539,51.6434179 C203.69155,51.7593592 204.127596,51.9746789 204.441549,52.2885051 C204.756375,52.6023313 204.913351,52.9693337 204.913351,53.3877686 C204.913351,53.5045817 204.907247,53.5908839 204.895909,53.6492905 L204.773816,54.2952495 C204.645619,55.0388433 204.278468,55.6176783 203.674109,56.0308828 C203.068877,56.4440874 202.283122,56.6506896 201.317716,56.6506896 L199.76452,56.6506896 C198.810452,56.6506896 198.059581,56.4327547 197.512779,55.9960132" id="Fill-60" fill="#000000"></path>
            </g>
        </g>
    </g>
</svg>