<svg xmlns="http://www.w3.org/2000/svg" id="Layer_1" data-name="Layer 1" viewBox="0 0 247 51"><defs><style>      .cls-1 {        fill-rule: evenodd;      }      .cls-1, .cls-2 {        fill: #fff;        stroke-width: 0px;      }    </style></defs><path class="cls-2" d="M149,30.9h-5.7l-6.5-8.3h21.9v27.2h-8.4v-6.1c-1.4,1.9-3.4,3.5-5.8,4.7-2.4,1.2-5.2,1.8-8.5,1.8-4.6,0-8.7-1-12.2-3.1-3.5-2.1-6.2-5-8.2-8.7-1.9-3.8-2.9-8.1-2.9-13.1s1-9.4,2.9-13.1c1.9-3.7,4.8-6.7,8.4-8.7,3.7-2,8-3.1,12.9-3.1s7.3.7,10.4,2.2c3,1.4,5.6,3.6,7.5,6.3,1.5,2.2,2.6,4.7,3.2,7.4h-10.6c-.7-1.9-1.8-3.4-3.3-4.6-2-1.6-4.4-2.4-7.3-2.4s-5.1.7-7.1,2c-2,1.4-3.5,3.2-4.6,5.7-1.1,2.4-1.6,5.2-1.6,8.3,0,4.8,1.2,8.7,3.5,11.6,2.3,2.9,5.6,4.4,9.7,4.4,3,0,5.8-.8,8-2.5,1.7-1.3,3.8-3.3,4.2-7.3v-.6Z"></path><path class="cls-2" d="M166.5.8v48.9h33.6v-9h-23.1v-10.9h18.2v-9h-18.2v-10.9h23.1V.8h-33.6Z"></path><path class="cls-1" d="M232.6,31.3c6.5-.4,9.3-3.5,10.8-5.9,1.5-2.4,2.2-5.2,2.2-8.3s-.7-6.1-2.2-8.6c-1.5-2.5-3.7-4.5-6.3-5.7-2.7-1.3-5.9-2-9.4-2h-19.9v48.9h10.5v-16.4h4.4l12.8,16.4h11.6l-14.4-18.5ZM218.2,24.6v-15h8.6c2.5,0,4.4.7,5.9,2,1.5,1.4,2.2,3.2,2.2,5.5s-.7,4.1-2.2,5.5c-1.5,1.4-3.4,2-5.9,2h-8.6Z"></path><path class="cls-2" d="M95.7.8h10.5v48.9h-10.5V.8Z"></path><path class="cls-2" d="M.4.8v48.9h33.6v-9H10.9v-10.9h18.2v-9H10.9v-10.9h23.1V.8H.4Z"></path><path class="cls-2" d="M77.9.8l-7.1,9.1,6.3,8h0S90.4.8,90.4.8h-12.5Z"></path><path class="cls-2" d="M39.6,49.8l19.1-24.5L39.6.8h12.5l19.1,24.5-19.1,24.5h-12.5Z"></path><path class="cls-2" d="M77,32.6l13.4,17.1h-12.5l-7.1-9.1,6.3-8Z"></path></svg>