<?xml version="1.0" encoding="UTF-8"?>
<svg height="123.72" viewBox="0,0,1000,123.724" width="1000" xmlns="http://www.w3.org/2000/svg">
 <metadata/>
 <path d="m939.911 51.505-4.72317-10.6084a60.9514 60.9514 0 0 1 32.1625-8.58417c22.0415 0 32.6498 12.1078 32.6498 34.6741v54.5414h-10.7958l-1.16205-9.78371a48.7311 48.7311 0 0 1 -30.2883 11.6205c-16.831 0-27.4394-10.271-27.4394-25.4152 0-16.6436 10.6084-27.102 32.3125-27.102h24.8904v-2.8489c0-15.6689-6.89733-24.0657-22.1914-24.0657a50.9802 50.9802 0 0 0 -25.4152 7.57207zm47.6066 29.9884h-24.403c-13.4573 0-20.1672 5.54785-20.1672 14.9942s7.23469 15.2941 17.8431 15.2941a41.6838 41.6838 0 0 0 26.7272-10.7583zm-290.7 40.0345-15.8564-93.7137-33.3246 93.7137h-9.59628l-33.1746-93.9386-16.0063 93.9386h-13.3074l20.9169-117.779h12.97l33.4745 97.9495 33.3246-97.9495h12.97l20.9169 117.817zm94.126-6.22259a60.6515 60.6515 0 0 1 -30.8131 7.90944c-26.2398 0-42.9209-18.5178-42.9209-45.4699 0-25.4152 16.681-45.4324 39.8846-45.4324 23.2035 0 37.0356 17.993 37.0356 40.5593 0 3.18626 0 6.41002-.33736 9.59628h-63.7253c1.98673 17.8431 13.4573 29.4636 31.1129 29.4636a57.7651 57.7651 0 0 0 25.4152-6.41002zm-9.59628-43.783v-.67474c0-15.4815-9.07149-27.2519-24.0657-27.2519s-24.9278 11.9579-27.102 27.9267zm102.823-71.5223v121.34h-10.7583l-1.19953-8.88406a43.1833 43.1833 0 0 1 -28.7888 10.7583c-23.5784 0-36.6983-20.542-36.6983-45.2825 0-25.4152 14.9942-45.6198 38.8724-45.6198a43.5956 43.5956 0 0 1 26.2398 8.73412v-41.0466zm-38.1977 111.744a40.1469 40.1469 0 0 0 25.5651-10.271v-48.2813a37.4855 37.4855 0 0 0 -23.8782-9.59628c-17.6931 0-28.3015 14.4694-28.3015 34.3367 0 18.6678 9.25891 33.8119 26.6147 33.8119zm69.4231-79.0944v88.8781h-12.6326v-88.8781zm-833.939 14.8068c-1.34948 7.75949-3.37369 16.3437-4.53574 21.3667l-12.7825 52.7046h-29.9884l-34.1493-117.779h27.5893l16.0063 58.8522c1.16205 5.21048 3.37369 14.132 5.06054 21.5541l19.4924-80.4063h26.4273l19.7174 80.4438c1.83679-7.4971 4.01095-16.3437 5.21048-21.5541l15.6314-58.8897h27.6268l-33.7369 117.817h-29.9884l-13.0449-52.7421c-1.16205-5.09802-3.18626-13.6072-4.53574-21.3667zm240.619-14.8068h21.854l1.68684 9.25891a43.8955 43.8955 0 0 1 13.1199-8.58417 39.0974 39.0974 0 0 1 14.9942-2.69895 26.2398 26.2398 0 0 1 21.5542 9.25891c5.06054 6.22259 7.49709 14.9942 7.49709 26.2398v55.4035h-25.0778v-53.8666a16.7185 16.7185 0 0 0 -3.37369-11.4331 13.1574 13.1574 0 0 0 -10.7208-3.74855 25.9399 25.9399 0 0 0 -16.4936 6.55996v62.4883h-25.0403zm165.986 64.8124 7.722 17.0184a63.7253 63.7253 0 0 1 -34.7116 9.22143c-26.2398 0-44.9826-19.5299-44.9826-46.6319 0-25.9399 17.3558-46.2946 42.9209-46.2946 24.5905 0 39.8846 17.3558 39.8846 43.5956 0 3.37369 0 7.90944-.33737 10.421h-57.7276c2.21164 12.2952 10.4584 18.1805 24.2531 18.1805a52.1423 52.1423 0 0 0 22.9786-5.51037zm-47.3067-29.1262h35.0114v-.82468a19.4175 19.4175 0 0 0 -4.53574-12.6326 15.6314 15.6314 0 0 0 -11.9579-5.06054 16.6436 16.6436 0 0 0 -12.2952 5.06054 25.1902 25.1902 0 0 0 -6.22259 13.6072zm-132.998-35.7986a24.6654 24.6654 0 0 0 -3.26123-.22491 38.4226 38.4226 0 0 0 -27.4019 11.6205l-1.68685-11.2456h-21.8915v88.8406h25.0778v-60.764a39.997 39.997 0 0 1 20.692-5.9227 49.6683 49.6683 0 0 1 8.47171.67474zm258.65 22.9786h.33737l4.08591-21.7791-1.2745-.41234a29.726 29.726 0 0 0 -6.37253-.82468 38.4601 38.4601 0 0 0 -27.4394 11.6205l-1.68685-11.2456h-21.8915v88.6531h25.0778v-60.764a39.997 39.997 0 0 1 20.7295-5.9227 51.2801 51.2801 0 0 1 8.58417.67474zm342.43-55.516a8.09686 8.09686 0 1 0 8.09686 8.09686 8.09686 8.09686 0 0 0 -8.09686-8.09686zm-708.026 30.6256a84.1924 84.1924 0 0 0 -34.1118 7.27218l4.79815 19.6049a62.6007 62.6007 0 0 1 25.0778-5.66031c10.9458 0 16.681 4.3858 16.681 15.8189v.82468h-17.0184c-24.7404 0-36.0235 9.93365-36.0235 27.9642 0 16.1562 11.6205 27.2519 29.1262 27.2519a38.6475 38.6475 0 0 0 26.7646-10.6084l1.5369 8.43423h20.5046v-55.4035c0-22.7162-13.4573-35.4987-37.3355-35.4987zm12.4452 68.486a31.8627 31.8627 0 0 1 -16.0063 5.84774c-7.4971 0-11.9579-4.19837-11.9579-10.271 0-6.07265 4.3858-10.0836 12.6326-10.0836h15.3316z" fill="#1e1e1e" stroke-width="3.749"/>
</svg>
